HIERARCHY
ROOT Hips
{
     OFFSET 9.81748 96.84850 -16.09740
     CHANNELS 6 Xposition Yposition Zposition Zrotation Xrotation Yrotation
     JOINT Spine
     {
          OFFSET 0.00000 11.89050 -0.00000
          CHANNELS 3 Zrotation Xrotation Yrotation
          JOINT Spine1
          {
               OFFSET 0.00000 25.65740 0.12766
               CHANNELS 3 Zrotation Xrotation Yrotation
               JOINT HEad
               {
                    OFFSET 0.00000 8.73416 0.01134
                    CHANNELS 3 Zrotation Xrotation Yrotation
                    End Site
                    {
                         OFFSET -0.29000 12.77420 2.51395
                    }
               }
               JOINT LeftShoulder1
               {
                    OFFSET 8.99000 -0.36225 -0.22000
                    CHANNELS 3 Zrotation Xrotation Yrotation
                    JOINT LeftArm
                    {
                         OFFSET 10.28270 -0.00338 0.32212
                         CHANNELS 3 Zrotation Xrotation Yrotation
                         JOINT LeftForeArm
                         {
                              OFFSET 32.76690 0.09914 -1.42434
                              CHANNELS 3 Zrotation Xrotation Yrotation
                              JOINT LeftHand
                              {
                                   OFFSET 27.56430 0.08536 1.02216
                                   CHANNELS 3 Zrotation Xrotation Yrotation
                                   End Site
                                   {
                                        OFFSET 16.74430 -0.60000 1.50291
                                   }
                              }
                         }
                    }
               }
               JOINT RightShoulder
               {
                    OFFSET -8.99000 -0.36225 -0.22000
                    CHANNELS 3 Zrotation Xrotation Yrotation
                    JOINT RightArm
                    {
                         OFFSET -10.28270 -0.00338 0.32212
                         CHANNELS 3 Zrotation Xrotation Yrotation
                         JOINT RightForeArm
                         {
                              OFFSET -32.89710 0.09914 -1.42434
                              CHANNELS 3 Zrotation Xrotation Yrotation
                              JOINT RightHand
                              {
                                   OFFSET -27.49210 0.08536 1.02216
                                   CHANNELS 3 Zrotation Xrotation Yrotation
                                   End Site
                                   {
                                        OFFSET -16.63120 -0.60000 1.50291
                                   }
                              }
                         }
                    }
               }
          }
     }
     JOINT LeftUpLeg
     {
          OFFSET 8.94580 -8.66707 0.10165
          CHANNELS 3 Zrotation Xrotation Yrotation
          JOINT LeftLeg
          {
               OFFSET 0.00000 -44.42270 1.37270
               CHANNELS 3 Zrotation Xrotation Yrotation
               JOINT LeftFoot
               {
                    OFFSET -0.25355 -42.09240 -1.46059
                    CHANNELS 3 Zrotation Xrotation Yrotation
                    JOINT LeftToes
                    {
                         OFFSET -0.04000 -4.41509 8.49910
                         CHANNELS 3 Zrotation Xrotation Yrotation
                         End Site
                         {
                              OFFSET 0.08000 -0.04745 9.77979
                         }
                    }
               }
          }
     }
     JOINT RightUpLeg
     {
          OFFSET -8.94580 -8.66707 0.10165
          CHANNELS 3 Zrotation Xrotation Yrotation
          JOINT RightLeg
          {
               OFFSET -0.00000 -44.42270 1.37270
               CHANNELS 3 Zrotation Xrotation Yrotation
               JOINT RightFoot
               {
                    OFFSET 0.25355 -42.09240 -1.46059
                    CHANNELS 3 Zrotation Xrotation Yrotation
                    JOINT RightToes
                    {
                         OFFSET 0.04000 -4.41509 8.49910
                         CHANNELS 3 Zrotation Xrotation Yrotation
                         End Site
                         {
                              OFFSET -0.08000 -0.13745 9.77979
                         }
                    }
               }
          }
     }
}
MOTION
Frames: 13
Frame Time: 0.01667
9.81748 96.84850 -16.09740 -5.47582 -11.46370 -26.72200 -1.26851 10.70040 -1.85700 -0.79030 21.26280 -3.70727 -2.37888 -1.98035 12.44570 -0.00000 -0.00000 0.00000 -134.46500 -67.21110 -105.99900 -49.74030 61.73540 -69.63530 16.97710 7.42196 -13.08100 16.17890 0.62977 0.83144 83.22470 -0.46605 70.69280 17.01770 32.58610 98.52370 20.72420 12.31460 8.60900 14.80090 -3.01157 -17.84430 -19.58670 5.55760 58.87970 -1.80812 10.04590 0.20240 6.62362 -16.24900 -55.15870 -17.85460 5.73457 11.76460 31.96080 5.87499 -22.60550 -40.54820 8.36494 5.84220 12.21900 -48.91070 23.01630 
10.03700 96.83240 -16.08430 -5.11805 -11.35930 -26.25430 -1.34600 10.69540 -1.83078 -0.82760 21.23730 -3.65916 -2.55569 -2.08752 12.41120 -0.00000 -0.00000 0.00000 -134.51601 -67.08260 -105.91100 -49.73070 61.76630 -69.84930 17.07870 7.41253 -13.03780 16.06070 0.58554 0.60847 83.23580 -0.29613 70.84420 17.10530 32.58200 98.64100 20.72930 12.31430 8.60407 14.61630 -3.69613 -18.46020 -20.11570 5.74246 59.05190 -2.18626 10.35670 0.26462 6.42222 -17.00730 -55.38050 -18.47490 5.66453 11.42100 32.36100 5.58780 -22.69360 -40.46170 8.41254 5.84618 12.15230 -48.74860 23.00210 
10.24860 96.79090 -16.10950 -4.76254 -11.28790 -25.73700 -1.44922 10.72260 -1.77103 -0.88193 21.27390 -3.54503 -2.73806 -2.18908 12.30910 -0.00000 -0.00000 0.00000 -135.04300 -66.81900 -106.22900 -49.97070 61.94170 -69.78640 17.16510 7.41182 -12.95160 16.00660 0.53780 0.35717 83.25390 -0.12879 71.03550 17.29290 32.59590 98.70930 20.73260 12.30690 8.56243 14.56430 -4.34210 -18.83650 -20.72910 5.96164 58.71720 -2.44811 10.85120 0.31314 5.92106 -18.82340 -55.87220 -19.07920 5.55840 11.11050 32.77560 5.39627 -23.05100 -40.51910 8.40702 5.85325 12.26240 -48.76680 23.29220 
10.44630 96.73560 -16.17130 -4.40948 -11.28700 -25.14880 -1.59626 10.79490 -1.69712 -0.94650 21.39710 -3.41167 -2.89729 -2.29629 12.21730 -0.00000 -0.00000 0.00000 -135.80400 -66.45750 -106.72700 -50.31980 62.16770 -69.59710 17.19010 7.42257 -12.85220 15.99420 0.49272 0.11500 83.32510 0.03364 71.25950 17.51770 32.64840 98.71920 20.68560 12.29090 8.50576 14.62570 -4.90457 -19.00020 -21.37530 6.25507 57.88700 -2.59715 11.41190 0.34637 5.12309 -21.55280 -56.70360 -19.66100 5.48475 10.87270 33.16910 5.25162 -23.65010 -40.73380 8.33507 5.86051 12.47160 -48.92640 23.70500 
10.63220 96.67860 -16.25970 -4.05439 -11.38900 -24.47360 -1.79200 10.91180 -1.63003 -1.01936 21.60710 -3.30441 -3.03679 -2.38994 12.21330 -0.00000 -0.00000 0.00000 -136.38499 -66.05090 -107.04400 -50.52960 62.32010 -69.49710 17.16460 7.43006 -12.82770 15.99200 0.46173 -0.05218 83.49300 0.17542 71.47050 17.68020 32.72850 98.68960 20.58680 12.27200 8.46465 14.76880 -5.36310 -19.08380 -22.01750 6.65615 56.85950 -2.70741 11.84200 0.37215 4.14422 -24.62210 -57.92000 -20.23030 5.49366 10.73010 33.51950 5.13927 -24.42060 -41.05190 8.19244 5.85720 12.68280 -49.15690 24.04040 
10.81230 96.62030 -16.35480 -3.70032 -11.59430 -23.72080 -2.01918 11.05480 -1.57480 -1.10061 21.86890 -3.23034 -3.17881 -2.42720 12.34170 -0.00000 -0.00000 0.00000 -136.44400 -65.64710 -106.88500 -50.38210 62.32860 -69.64800 17.15330 7.41205 -12.96250 15.99160 0.45226 -0.10330 83.72050 0.28697 71.60020 17.70900 32.77440 98.66360 20.47170 12.25570 8.44697 14.98840 -5.73526 -19.26500 -22.64960 7.17056 56.22650 -2.79400 11.95990 0.38897 3.15876 -27.36020 -59.49540 -20.79240 5.58222 10.67680 33.82680 5.09316 -25.31830 -41.41380 7.98421 5.83494 12.86940 -49.44590 24.23820 
10.98790 96.54860 -16.43310 -3.35732 -11.86740 -22.91780 -2.24758 11.19730 -1.52124 -1.18648 22.13250 -3.16272 -3.35116 -2.38002 12.61000 -0.00000 -0.00000 0.00000 -136.06300 -65.28580 -106.31100 -49.90700 62.24610 -70.01950 17.17900 7.37450 -13.19130 16.00070 0.45960 -0.06442 83.91240 0.37275 71.60710 17.61510 32.72740 98.65260 20.36630 12.24410 8.44888 15.32030 -6.06266 -19.68040 -23.29610 7.76142 56.59850 -2.77635 11.67660 0.38085 2.32424 -29.35680 -61.21430 -21.33650 5.69797 10.70120 34.11090 5.16410 -26.37060 -41.79430 7.71384 5.79030 13.08790 -49.85470 24.38730 
11.15260 96.44620 -16.47560 -3.03718 -12.16180 -22.10220 -2.44705 11.32150 -1.46064 -1.27242 22.36520 -3.07631 -3.57905 -2.24197 13.01360 -0.00000 -0.00000 0.00000 -135.75301 -65.01940 -105.76600 -49.39170 62.21540 -70.40450 17.18420 7.35672 -13.30680 16.01680 0.47392 0.01151 84.00900 0.45059 71.50070 17.46990 32.58100 98.61510 20.28070 12.23870 8.47261 15.82200 -6.36919 -20.36260 -23.98490 8.35481 58.20840 -2.62328 10.99500 0.34373 1.78051 -30.45740 -62.66740 -21.84080 5.76924 10.80690 34.39890 5.39747 -27.63350 -42.20010 7.38072 5.72318 13.40900 -50.46570 24.58440 
11.29740 96.29790 -16.47040 -2.74534 -12.44030 -21.30410 -2.59294 11.42470 -1.39607 -1.35688 22.56230 -2.96865 -3.87535 -2.02682 13.55620 -0.00000 -0.00000 0.00000 -135.95000 -64.89250 -105.65400 -49.10620 62.33500 -70.61020 17.11150 7.38799 -13.17100 16.00460 0.48744 0.08554 84.04890 0.54628 71.32530 17.34410 32.38740 98.50970 20.22710 12.24030 8.51409 16.52820 -6.64089 -21.21670 -24.69220 8.86773 60.72940 -2.44082 10.01310 0.29929 1.66580 -30.55960 -63.47710 -22.28350 5.73799 10.98300 34.70750 5.83523 -29.11740 -42.66940 6.97601 5.63476 13.85030 -51.32790 24.81170 
11.42010 96.09390 -16.41110 -2.47840 -12.68020 -20.51750 -2.66466 11.51130 -1.33852 -1.44022 22.73340 -2.85199 -4.22295 -1.76605 14.24070 -0.00000 -0.00000 0.00000 -136.64400 -64.90240 -106.01800 -49.10910 62.58830 -70.57400 16.98510 7.45347 -12.85510 15.93140 0.49325 0.12376 84.13820 0.63812 71.13540 17.29310 32.27870 98.32150 20.19030 12.24590 8.56775 17.42400 -6.84102 -22.05660 -25.31730 9.22869 63.45650 -2.33902 8.94474 0.26843 2.03930 -29.61680 -63.52740 -22.64530 5.57157 11.16560 35.03130 6.54243 -30.77200 -43.24200 6.45638 5.51168 14.35600 -52.41070 24.94800 
11.52800 95.82850 -16.29620 -2.23224 -12.88120 -19.70140 -2.64357 11.58350 -1.30077 -1.52848 22.88300 -2.73994 -4.56229 -1.49096 15.04680 -0.00000 -0.00000 0.00000 -137.48000 -65.02310 -106.61600 -49.28980 62.88430 -70.34120 16.88370 7.51269 -12.55120 15.83030 0.48743 0.10157 84.33120 0.64905 70.95630 17.32650 32.39620 98.08500 20.12010 12.24890 8.62811 18.46010 -6.93237 -22.72530 -25.73280 9.37520 65.69550 -2.32558 8.05471 0.25392 2.82306 -27.72720 -62.95660 -22.91700 5.26537 11.27470 35.35400 7.59722 -32.56590 -43.88880 5.75624 5.31988 14.87630 -53.62810 24.96000 
11.63620 95.49610 -16.12760 -2.01297 -13.05990 -18.80660 -2.51310 11.63570 -1.29628 -1.62821 23.00200 -2.64829 -4.82869 -1.21297 15.93680 -0.00000 -0.00000 0.00000 -137.99800 -65.25070 -107.10700 -49.39690 63.10120 -70.09960 16.83820 7.54167 -12.39680 15.78040 0.47326 0.02893 84.55290 0.53716 70.75780 17.36880 32.73120 97.90940 20.00450 12.24150 8.66079 19.59050 -6.91123 -23.23310 -25.88230 9.25597 67.05370 -2.37747 7.50358 0.25299 3.89180 -25.02120 -61.92350 -23.10920 4.85294 11.27840 35.67590 9.00495 -34.56690 -44.52330 4.84873 5.03209 15.48800 -54.93740 25.07260 
11.76410 95.09190 -15.90710 -1.83637 -13.23060 -17.79540 -2.26434 11.65960 -1.33704 -1.73412 23.07600 -2.59690 -4.99968 -0.91672 16.86510 -0.00000 -0.00000 0.00000 -137.86099 -65.59920 -107.23400 -49.13640 63.13710 -70.12940 16.80250 7.54849 -12.38620 15.83610 0.45834 -0.05726 84.69320 0.30911 70.50240 17.35780 33.16810 97.87810 19.90250 12.22320 8.62432 20.78740 -6.82921 -23.75590 -25.81870 8.85957 67.48190 -2.51098 7.26153 0.26680 5.14713 -21.54280 -60.42620 -23.24620 4.40156 11.20280 36.02560 10.66070 -36.86920 -45.07460 3.76178 4.64777 16.30530 -56.32630 25.53070 
